<svg xmlns="http://www.w3.org/2000/svg" viewBox="0 0 86 75"><g transform="matrix(1 0 0 -1 0 74.97)" fill="#fff" fill-rule="evenodd"><path d="M29.637 74.335c-4.294-.363-12.248-1.391-14.91-1.936C7.803 70.978 2.178 65.625.455 58.79c-.545-2.086-.605-6.38-.121-8.68.544-2.63 2.45-6.229 4.475-8.467l1.845-1.996V26.22c0-14.758.06-15.363 1.845-18.72 1.815-3.357 5.716-6.32 9.617-7.228 1.693-.393 3.66-.363 13.488.303 5.443.363 17.238.363 22.681 0C64.87-.151 66.411-.151 68.498.423c3.569.968 7.379 4.053 9.042 7.38 1.633 3.175 1.694 3.9 1.694 18.417v13.427l1.845 1.996c2.026 2.238 3.931 5.837 4.475 8.468.484 2.298.424 6.593-.12 8.68-1.603 6.32-6.624 11.491-12.853 13.276-2.269.635-9.073 1.572-15.424 2.147-5.776.484-21.925.574-27.52.12zm22.893-4.839c4.809-.272 5.565-.393 7.047-1.089 2.086-.998 5.685-4.536 6.744-6.592 3.235-6.442 2.147-13.307-2.994-18.871l-1.906-2.057-.09-14.637-.091-14.637-.968-1.966c-.544-1.089-1.391-2.389-1.905-2.873l-.938-.907-11.4.09c-7.652.091-13.096-.03-16.543-.302-8.044-.635-10.252-.544-12.157.454-2.087 1.089-3.63 2.661-4.597 4.718l-.786 1.693-.091 14.637-.09 14.637-2.088 2.299c-2.389 2.63-3.417 4.324-4.082 6.834-1.391 5.444.816 11.432 5.383 14.456 2.117 1.421 4.445 2.147 8.589 2.752 10.524 1.512 22.379 1.996 32.963 1.361z" fill-rule="nonzero"/><circle cx="33.266" cy="17.208" r="2.419"/><circle cx="26.915" cy="26.885" r="2.419"/></g></svg>
